PathFileType	4	(X/Y/Z)	./resultDataOpenSim/trcMotMarkerGrf/sub10/qtm-13-07.trc
DataRate	CameraRate	NumFrames	NumMarkers	Units	OrigDataRate	OrigDataStartFrame	OrigNumFrames
250.000000	250.000000	7	24	m	250.000000	186	494
Frame#	Time	L.Toe.Tip			R.Toe.Tip			L.Ankle.Lat			R.Ankle.Lat			L.Ankle.Med			R.Ankle.Med			L.Heel			R.Heel			L.Knee.Lat			R.Knee.Lat			L.Knee.Med			R.Knee.Med			L.Thigh.Upper			R.Thigh.Upper			L.ASIS			R.ASIS			V.Sacral			L.Acromium			R.Acromium			C7			L.Elbow			R.Elbow			L.Wrist.Lat			R.Wrist.Lat
		X1	Y1	Z1	X2	Y2	Z2	X3	Y3	Z3	X4	Y4	Z4	X5	Y5	Z5	X6	Y6	Z6	X7	Y7	Z7	X8	Y8	Z8	X9	Y9	Z9	X10	Y10	Z10	X11	Y11	Z11	X12	Y12	Z12	X13	Y13	Z13	X14	Y14	Z14	X15	Y15	Z15	X16	Y16	Z16	X17	Y17	Z17	X18	Y18	Z18	X19	Y19	Z19	X20	Y20	Z20	X21	Y21	Z21	X22	Y22	Z22	X23	Y23	Z23	X24	Y24	Z24

186	0.74	0.016752306	-0.0060685389	-0.026751295	-0.74311077	0.037594514	0.024821971	-0.11802862	0.01794026	-0.059622543	-0.79914881	0.16242004	0.071157385	-0.11466344	0.041778569	0.022970338	-0.75163933	0.1544694	-0.0015163942	-0.18354686	-0.01221595	-0.017970945	-0.83542615	0.1873958	0.014462261	-0.10959683	0.40322932	-0.10406386	-0.47847735	0.37934221	0.12927336	-0.10338767	0.38454727	0.018658829	-0.42336826	0.35736767	0.0154484	-0.23078009	0.76002344	-0.17559854	-0.38247914	0.76645042	0.18105149	-0.21644264	0.86913676	-0.090732355	-0.27889158	0.85339653	0.1438669	-0.43886549	0.8734077	-0.045101895	-0.33101572	1.3235655	-0.16295021	-0.36030182	1.3309118	0.16396137	-0.43474589	1.347829	-0.011627016	-0.44953219	1.0011523	-0.17923286	-0.35725447	0.96833778	0.21255251	-0.3855213	0.77496818	-0.23873178	-0.12310129	0.88385683	0.20056172
187	0.744	0.017273674	-0.0063693255	-0.026803766	-0.74019386	0.038553282	0.025369722	-0.11747573	0.018562819	-0.059424446	-0.7901891	0.16585729	0.073201405	-0.11399354	0.042190245	0.023182858	-0.74283718	0.15672738	0.00070997776	-0.18322812	-0.011575895	-0.017829174	-0.82547189	0.19298487	0.017139752	-0.10094196	0.40411083	-0.1036108	-0.4688157	0.37810102	0.13124618	-0.096356559	0.38581537	0.019495087	-0.41075934	0.35379435	0.018375804	-0.22270557	0.76020728	-0.17633741	-0.37356963	0.76464251	0.18102475	-0.20996725	0.86842306	-0.091197499	-0.27127354	0.85223149	0.1431758	-0.4310244	0.87288295	-0.045125912	-0.32368707	1.3225902	-0.16347787	-0.3536017	1.330305	0.16338203	-0.42744192	1.3468864	-0.012471984	-0.4419465	1.0002309	-0.17984502	-0.35259195	0.96775812	0.21225599	-0.37804641	0.7739231	-0.24009679	-0.11886016	0.88194624	0.20273668
188	0.748	0.01780024	-0.0066417674	-0.026882852	-0.73668454	0.040078389	0.026187554	-0.11684781	0.019107778	-0.059220888	-0.7808653	0.16935235	0.075352893	-0.11318086	0.042539707	0.02340234	-0.73380953	0.15916158	0.0029201035	-0.18290001	-0.010924543	-0.017667806	-0.81542396	0.19856602	0.020212105	-0.092160338	0.40487659	-0.10316194	-0.45930635	0.3769009	0.13316337	-0.089161261	0.38711886	0.02022524	-0.39787471	0.3500974	0.021259087	-0.2149278	0.7605017	-0.17705103	-0.36471175	0.7627414	0.18114613	-0.2035694	0.86767189	-0.091680628	-0.26357822	0.85100439	0.1422506	-0.42373377	0.87229016	-0.044678616	-0.3163523	1.3215828	-0.16393379	-0.34684404	1.3296451	0.16281387	-0.42002592	1.3459773	-0.013266996	-0.43431145	0.99930791	-0.18054992	-0.34795096	0.96725389	0.21203148	-0.37045683	0.7729131	-0.24153414	-0.11468436	0.87994752	0.20504736
189	0.752	0.018249099	-0.006875558	-0.026935924	-0.7326676	0.041927023	0.027281846	-0.1162218	0.019507257	-0.059065118	-0.77117635	0.17294019	0.077569014	-0.11241909	0.042849725	0.023564042	-0.72451848	0.16174414	0.0050950128	-0.18262361	-0.010285731	-0.017550378	-0.80502524	0.20424904	0.023385202	-0.083400871	0.40547238	-0.10273297	-0.44981891	0.37573775	0.13507999	-0.081790181	0.38833691	0.02084891	-0.38474155	0.34632692	0.024071568	-0.20747171	0.76079241	-0.17772526	-0.35598411	0.7607515	0.1814649	-0.19726217	0.86688721	-0.092127876	-0.25578151	0.84975656	0.14106456	-0.41720975	0.87160573	-0.0437761	-0.30901162	1.3205363	-0.16431583	-0.34005787	1.3289067	0.16224409	-0.41251688	1.3450901	-0.013980206	-0.42644149	0.99836019	-0.18144994	-0.34337876	0.96680077	0.21186661	-0.3627495	0.77191439	-0.24303369	-0.1105888	0.87786594	0.20749982
190	0.756	0.018600014	-0.0070654962	-0.026988084	-0.72822442	0.043899587	0.02862334	-0.11564272	0.01977171	-0.058996895	-0.76115225	0.17664809	0.079809252	-0.11181915	0.043127026	0.023620851	-0.71492165	0.16443623	0.0072385975	-0.18238968	-0.0096558229	-0.017511983	-0.79412325	0.21006722	0.026414699	-0.074774996	0.40587034	-0.1023523	-0.43978849	0.37449288	0.13716603	-0.074287468	0.38936718	0.02134527	-0.37137987	0.34255541	0.026768069	-0.20036368	0.76098105	-0.17836151	-0.34747861	0.75869159	0.18203315	-0.19104208	0.86607087	-0.092516169	-0.24798192	0.84850543	0.13970248	-0.41137649	0.87084501	-0.042551041	-0.30164813	1.3194573	-0.16463166	-0.33328014	1.3280845	0.16166962	-0.4049486	1.3442069	-0.014594219	-0.41831605	0.99742726	-0.18269327	-0.3389034	0.96632628	0.21173613	-0.354925	0.77090336	-0.24457283	-0.1065733	0.87571593	0.21010697
191	0.76	0.018891142	-0.0072157113	-0.027078513	-0.72338354	0.045940557	0.030180452	-0.11510084	0.019967712	-0.059011054	-0.75083148	0.18049548	0.082035522	-0.11133122	0.043362379	0.023587637	-0.70498768	0.16719719	0.0093760959	-0.18216887	-0.0090027104	-0.017519755	-0.78268135	0.21593184	0.029173701	-0.066375291	0.40603763	-0.10205269	-0.42823096	0.37287601	0.13969041	-0.066745833	0.3901013	0.021659908	-0.35780629	0.33887078	0.02929675	-0.19362483	0.76100512	-0.17897016	-0.33921529	0.75658892	0.18281927	-0.18490064	0.86522498	-0.092861074	-0.24027584	0.84725288	0.13826169	-0.40594481	0.87004954	-0.041166174	-0.29424169	1.3183609	-0.16489797	-0.32651703	1.3271851	0.16110251	-0.39736321	1.3433047	-0.015113491	-0.41008303	0.99651767	-0.18419165	-0.33451284	0.96576346	0.21162353	-0.34698735	0.76986502	-0.24612421	-0.10263619	0.87351186	0.21288173
192	0.764	0.019176308	-0.0073389074	-0.02721745	-0.71810126	0.048121378	0.031952535	-0.11455416	0.020150106	-0.059057685	-0.74023915	0.18448751	0.084219422	-0.11079987	0.043557896	0.02353691	-0.69470687	0.17000282	0.011523664	-0.18194862	-0.0082924065	-0.017515532	-0.77066559	0.22167956	0.031574684	-0.058284044	0.40593493	-0.10185977	-0.4144598	0.37055283	0.14277428	-0.059258662	0.39044412	0.021729599	-0.34405408	0.33536141	0.031631466	-0.18725696	0.76083857	-0.1795597	-0.33108096	0.75447986	0.18363955	-0.17882454	0.86435069	-0.093196486	-0.23273407	0.8459897	0.13682542	-0.40062956	0.869249	-0.039744531	-0.28679968	1.3172563	-0.16513384	-0.31973142	1.3262149	0.16056791	-0.3897998	1.34236	-0.015559138	-0.40186298	0.99554041	-0.1855709	-0.33016345	0.96509424	0.21151531	-0.33894317	0.76879411	-0.24766203	-0.098779538	0.87125483	0.21582558
